<?xml version="1.0" encoding="UTF-8" standalone="no"?>
<svg
   xmlns:dc="http://purl.org/dc/elements/1.1/"
   xmlns:cc="http://creativecommons.org/ns#"
   xmlns:rdf="http://www.w3.org/1999/02/22-rdf-syntax-ns#"
   xmlns:svg="http://www.w3.org/2000/svg"
   xmlns="http://www.w3.org/2000/svg"
   viewBox="0 0 192 192"
   height="192"
   width="192"
   xml:space="preserve"
   version="1.1"
   id="svg2"><metadata
     id="metadata8"><rdf:RDF><cc:Work
         rdf:about=""><dc:format>image/svg+xml</dc:format><dc:type
           rdf:resource="http://purl.org/dc/dcmitype/StillImage" /><dc:title></dc:title></cc:Work></rdf:RDF></metadata><defs
     id="defs6" /><g
     transform="matrix(1.25,0,0,-1.25,0,192)"
     id="g10"><g
       transform="matrix(1.3279458,0,0,1.3279458,-1062.7455,-257.62725)"
       id="g4671"><path
         id="path74"
         style="fill:#9bd421;fill-opacity:1;fill-rule:nonzero;stroke:none"
         d="m 903.91153,258.04503 c 0,-7.603 -5.954,-13.771 -13.292,-13.771 -0.147,0 -0.271,0.012 -0.405,0.024 -0.169,-0.351 -0.361,-0.7 -0.563,-1.027 -0.619,-1.037 -1.362,-1.993 -2.218,-2.822 -2.375,-2.32 -5.571,-3.743 -9.082,-3.743 -4.795,0 -8.981,2.636 -11.323,6.577 -1.159,-0.35 -2.374,-0.537 -3.646,-0.537 -1.869,0 -3.647,0.397 -5.256,1.12 -1.61,-0.723 -3.388,-1.12 -5.256,-1.12 -1.272,0 -2.487,0.187 -3.647,0.537 -2.341,-3.941 -6.528,-6.577 -11.322,-6.577 -5.189,0 -9.68,3.091 -11.863,7.592 -0.135,-0.012 -0.259,-0.024 -0.405,-0.024 -7.338,0 -13.292,6.168 -13.292,13.771 0,0.093 0,0.186 0.011,0.291 0.045,2.694 0.844,5.177 2.172,7.265 0.732,1.142 1.621,2.168 2.634,3.043 2.296,1.982 5.256,3.172 8.475,3.172 0,1.084 0.124,2.145 0.349,3.159 1.384,6.087 6.651,10.611 12.954,10.611 1.756,0 3.433,-0.361 4.964,-1.003 2.554,5.481 7.957,9.282 14.226,9.282 6.268,0 11.672,-3.801 14.226,-9.282 1.531,0.642 3.207,1.003 4.963,1.003 7.35,0 13.304,-6.168 13.304,-13.77 7.338,0 13.292,-6.169 13.292,-13.771" /><path
         id="path78"
         style="fill:#7fca28;fill-opacity:1;fill-rule:nonzero;stroke:none"
         d="m 903.91153,258.04503 c 0,7.602 -5.954,13.771 -13.292,13.771 0,7.602 -5.954,13.77 -13.304,13.77 -1.756,0 -3.432,-0.361 -4.963,-1.003 -2.555,5.481 -7.958,9.282 -14.226,9.282 -6.258,0 -11.652,-3.789 -14.212,-9.253 l 0.073,-0.114 c 0,0 21.806,8.812 25.822,-11.069 0,0 12.878,4.248 13.94,-7.435 0,0 7.47,-1.572 8.098,-7.434 0.631,-5.875 -5.742,-8.696 -9.724,-6.174 0,0 -5.543,-10.156 -15.102,-0.996 0,0 -3.786,-5.722 -8.618,-7.631 1.537,-0.648 3.215,-1.013 4.979,-1.013 1.272,0 2.487,0.187 3.646,0.537 2.342,-3.941 6.528,-6.577 11.323,-6.577 3.511,0 6.707,1.423 9.082,3.743 0.856,0.829 1.599,1.785 2.218,2.822 0.202,0.327 0.394,0.676 0.563,1.027 0.134,-0.012 0.258,-0.024 0.405,-0.024 7.338,0 13.292,6.168 13.292,13.771" /><path
         id="path80"
         style="fill:#602e18;fill-opacity:1;fill-rule:nonzero;stroke:none"
         d="m 866.21153,221.53003 c -2.476,6.603 -3.256,26.174 -3.424,31.688 -0.025,0.84 0.445,1.613 1.204,1.978 2.99,1.436 10.227,4.76 8.567,5.087 -0.939,0.186 -5.475,-1.314 -8.202,-1.926 1.346,2.909 2.413,5.799 3.167,7.737 2.627,6.747 -9.322,-10.769 -9.322,-10.769 0,0 -4.072,1.918 -5.665,3.01 -0.273,0.186 -0.339,0.552 -0.165,0.833 1.042,1.675 1.974,3.602 2.531,4.767 1.469,3.074 -2.799,-1.737 -4.226,-3.768 -0.081,-0.114 -0.237,-0.132 -0.338,-0.036 -2.562,2.451 -6.043,5.462 -6.719,6.177 -2.401,2.54 -0.235,-2.6 3.033,-5.4 -3.146,0.114 -11.149,0.871 -12.443,0.535 -1.575,-0.409 8.635,-2.02 11.86,-2.513 0.623,-0.095 1.197,-0.385 1.644,-0.83 l 6.668,-6.624 c 0,0 -1.065,-24.092 -3.26,-29.946 -2.89,-7.705 -14.448,-8.668 -8.829,-8.989 5.618,-0.322 11.398,6.903 11.076,2.889 -0.321,-4.013 -4.173,-5.619 -1.605,-5.619 2.568,0 6.903,6.261 6.903,6.261 0,0 4.335,-6.261 6.903,-6.261 2.568,0 -1.284,1.606 -1.605,5.619 -0.322,4.014 5.458,-3.211 11.077,-2.889 5.618,0.321 -5.941,1.284 -8.83,8.989" /></g></g></svg>